<!-- Terraspot Logo SVG -->
<svg width="208" height="31" viewBox="0 0 208 31" fill="none" xmlns="http://www.w3.org/2000/svg" className="mr-3">
    <!-- TERRA -->
    <path d="M12.8067 1.25262C13.1723 1.25262 13.4566 1.49633 13.5379 1.8619V3.85224C13.5379 4.33967 13.2535 4.62401 12.8067 4.62401H4.2767V29.686C4.2767 30.011 3.99237 30.3359 3.58618 30.3359H1.55522C1.18965 30.3359 0.905314 30.0516 0.905314 29.686V1.8619C0.905314 1.49633 1.18965 1.25262 1.55522 1.25262H12.8067ZM14.7961 30.3359C14.3493 30.3359 14.1462 30.1328 14.1462 29.686V1.82128C14.1462 1.41509 14.3899 1.25262 14.7961 1.25262H34.009C34.4152 1.25262 34.6183 1.45571 34.6183 1.8619V3.89286C34.6183 4.38029 34.4152 4.62401 33.9684 4.62401H17.5582V9.49831H30.597C30.9625 9.49831 31.2063 9.82326 31.2063 10.1888V12.2198C31.2063 12.5854 30.9625 12.9103 30.597 12.9103H17.5582V17.9471H30.597C30.9625 17.9471 31.2063 18.2314 31.2063 18.597V20.6686C31.2063 20.9935 30.9625 21.3591 30.597 21.3591H17.5582V26.9645H33.8465C34.2527 26.9645 34.5776 27.2083 34.5776 27.6551V29.6454C34.5776 30.0922 34.3339 30.3359 33.8871 30.3359H14.7961ZM35.8625 16.2005H47.6827C50.5667 15.9974 53.0038 13.2759 53.0038 10.3919C53.0038 7.42673 50.4854 4.58339 47.3984 4.58339H37.6092C37.1624 4.58339 36.9593 4.29905 36.9593 3.89286V1.8619C36.9593 1.45571 37.203 1.25262 37.6092 1.25262H47.439C52.2727 1.25262 56.4158 5.43639 56.4158 10.3513C56.4158 14.4538 53.4913 18.1908 49.5106 19.3281L55.8472 29.8891C55.9284 30.0516 55.969 30.1328 55.969 30.2141C55.969 30.2953 55.8472 30.3359 55.6035 30.3359H52.557C52.1508 30.3359 51.8665 30.0516 51.6634 29.7267L45.5299 19.5312H38.584V29.7267C38.584 30.1328 38.3809 30.3359 37.9747 30.3359H35.8625C35.4157 30.3359 35.2126 30.1328 35.2126 29.7267V16.891C35.2126 16.4848 35.497 16.2005 35.8625 16.2005ZM57.6827 16.2005H69.5028C72.3868 15.9974 74.8239 13.2759 74.8239 10.3919C74.8239 7.42673 72.3056 4.58339 69.2185 4.58339H59.4293C58.9825 4.58339 58.7794 4.29905 58.7794 3.89286V1.8619C58.7794 1.45571 59.0231 1.25262 59.4293 1.25262H69.2591C74.0928 1.25262 78.2359 5.43639 78.2359 10.3513C78.2359 14.4538 75.3114 18.1908 71.3307 19.3281L77.6673 29.8891C77.7485 30.0516 77.7891 30.1328 77.7891 30.2141C77.7891 30.2953 77.6673 30.3359 77.4236 30.3359H74.3771C73.9709 30.3359 73.6866 30.0516 73.4835 29.7267L67.35 19.5312H60.4041V29.7267C60.4041 30.1328 60.201 30.3359 59.7948 30.3359H57.6827C57.2358 30.3359 57.0327 30.1328 57.0327 29.7267V16.891C57.0327 16.4848 57.3171 16.2005 57.6827 16.2005ZM92.8258 1.74004C92.8258 1.74004 104.768 29.3205 104.768 29.3611C104.89 29.6454 104.89 29.7267 104.89 29.8485C104.89 30.1735 104.646 30.3359 104.199 30.3359H79.6246C79.1778 30.3359 78.8529 30.0922 78.8529 29.7267C78.8529 29.6048 78.8529 29.4829 78.9341 29.3611L91.0386 1.74004C91.2417 1.33385 91.4448 1.212 91.8916 1.212H92.0135C92.5415 1.212 92.6227 1.33385 92.8258 1.74004ZM91.9322 7.54858L83.6865 26.8833H100.137L91.9322 7.54858Z" fill="white"/>
    <!-- {/* S */} -->
    <path d="M110.874 5.72072C110.63 5.96444 109.249 8.11725 109.249 9.7014C109.249 10.7575 109.615 11.8542 110.346 12.8291C112.336 15.4693 114.733 17.3784 114.733 21.3185C114.733 26.0303 111.077 30.2141 106.162 30.4984C105.715 30.4984 105.512 30.1735 105.512 29.7673V27.98C105.512 27.6145 105.797 27.3707 106.162 27.3301C109.046 26.9645 111.565 23.8775 111.565 21.0341C111.565 17.744 108.153 15.8755 106.853 13.2353C106.243 12.0167 105.959 10.7575 105.959 9.53892C105.959 4.90834 109.777 0.562089 114.733 0.318375C115.18 0.318375 115.383 0.643329 115.383 1.04952V2.918C115.383 3.32419 115.098 3.48667 114.733 3.52729C113.189 3.73038 111.89 4.58339 110.874 5.72072Z" fill="#0B50FF"/>
    <!-- {/* P */} -->
    <path d="M119.301 1.25262H129.131C134.412 1.25262 137.783 5.27391 137.783 10.2701C137.783 14.9413 134.33 19.5312 128.969 19.5312H120.073V29.7267C120.073 30.1328 119.87 30.3359 119.423 30.3359H117.352C116.905 30.3359 116.702 30.1328 116.702 29.7267V16.891C116.702 16.4848 116.986 16.2005 117.352 16.2005L129.091 16.2411C132.015 16.038 134.493 13.3165 134.493 10.4325C134.493 7.42673 131.974 4.58339 128.887 4.58339H119.301C118.895 4.58339 118.651 4.29905 118.651 3.9741V1.94314C118.651 1.53695 118.936 1.25262 119.301 1.25262Z" fill="#FF9601"/>
    <!-- {/* O */} -->
    <path d="M153.391 0.358993C161.637 0.358993 168.38 7.10177 168.38 15.3475C168.38 23.5932 161.637 30.3359 153.391 30.3359C145.105 30.3359 138.403 23.5932 138.403 15.3475C138.403 7.10177 145.105 0.358993 153.391 0.358993ZM153.391 27.0458C159.809 27.0458 165.049 21.7653 165.049 15.3475C165.049 8.88902 159.809 3.64915 153.391 3.64915C146.933 3.64915 141.693 8.88902 141.693 15.3475C141.693 21.7653 146.933 27.0458 153.391 27.0458Z" fill="#9900CC"/>
    <!-- {/* R */} -->
    <path d="M169.481 16.2005H181.301C184.185 15.9974 186.622 13.2759 186.622 10.3919C186.622 7.42673 184.103 4.58339 181.016 4.58339H171.227C170.78 4.58339 170.577 4.29905 170.577 3.89286V1.8619C170.577 1.45571 170.821 1.25262 171.227 1.25262H181.057C185.891 1.25262 190.034 5.43639 190.034 10.3513C190.034 14.4538 187.109 18.1908 183.129 19.3281L189.465 29.8891C189.546 30.0516 189.587 30.1328 189.587 30.2141C189.587 30.2953 189.465 30.3359 189.221 30.3359H186.175C185.769 30.3359 185.485 30.0516 185.281 29.7267L179.148 19.5312H172.202V29.7267C172.202 30.1328 171.999 30.3359 171.593 30.3359H169.481C169.034 30.3359 168.831 30.1328 168.831 29.7267V16.891C168.831 16.4848 169.115 16.2005 169.481 16.2005Z" fill="#E30B5C"/>
    <!-- {/* T */} -->
    <path d="M206.411 1.25262C206.777 1.25262 207.061 1.49633 207.142 1.8619V3.85224C207.142 4.33967 206.858 4.62401 206.411 4.62401H197.881V29.686C197.881 30.011 197.597 30.3359 197.19 30.3359H195.159C194.794 30.3359 194.51 30.0516 194.51 29.686V1.8619C194.51 1.49633 194.794 1.25262 195.159 1.25262H206.411Z" fill="#05C7FC"/>
</svg>